<svg xmlns="http://www.w3.org/2000/svg" height="480" width="640" viewBox="0 0 640 480" id="flag-icon-css-um">
  <defs>
    <clipPath id="a">
      <path fill-opacity=".67" d="M0 0h682.67v512H0z"/>
    </clipPath>
  </defs>
  <g fill-rule="evenodd" clip-path="url(#a)" transform="scale(.9375)">
    <g stroke-width="1pt">
      <g fill="#bd3d44">
        <path d="M0 0h972.81v39.385H0zM0 78.77h972.81v39.385H0zM0 157.54h972.81v39.385H0zM0 236.31h972.81v39.385H0zM0 315.08h972.81v39.385H0zM0 393.85h972.81v39.385H0zM0 472.62h972.81v39.385H0z"/>
      </g>
      <g fill="#fff">
        <path d="M0 39.385h972.81V78.77H0zM0 118.155h972.81v39.385H0zM0 196.925h972.81v39.385H0zM0 275.695h972.81v39.385H0zM0 354.465h972.81v39.385H0zM0 433.235h972.81v39.385H0z"/>
      </g>
    </g>
    <path fill="#192f5d" d="M0 0h389.12v275.69H0z"/>
    <g fill="#fff">
      <path d="M32.427 11.8l3.54 10.896h11.458l-9.27 6.735 3.541 10.896-9.27-6.734-9.268 6.734 3.54-10.896-9.269-6.735h11.457zM97.28 11.8l3.541 10.896h11.458l-9.27 6.735 3.541 10.896-9.27-6.734-9.268 6.734 3.54-10.896-9.269-6.735H93.74zM162.136 11.8l3.54 10.896h11.458l-9.27 6.735 3.541 10.896-9.269-6.734-9.269 6.734 3.54-10.896-9.269-6.735h11.458zM226.988 11.8l3.54 10.896h11.457l-9.269 6.735 3.54 10.896-9.268-6.734-9.27 6.734 3.541-10.896-9.27-6.735h11.458zM291.843 11.8l3.54 10.896h11.458l-9.27 6.735 3.541 10.896-9.27-6.734-9.268 6.734 3.54-10.896-9.269-6.735h11.457zM356.698 11.8l3.54 10.896h11.458l-9.27 6.735 3.541 10.896-9.269-6.734-9.27 6.734 3.542-10.896-9.27-6.735h11.458z"/>
      <g>
        <path d="M64.855 39.37l3.54 10.896h11.458L70.583 57l3.542 10.897-9.27-6.734-9.269 6.734L59.126 57l-9.269-6.734h11.458zM129.707 39.37l3.54 10.896h11.457L135.435 57l3.54 10.897-9.268-6.734-9.27 6.734L123.978 57l-9.27-6.734h11.458zM194.562 39.37l3.54 10.896h11.458L200.29 57l3.541 10.897-9.27-6.734-9.268 6.734L188.833 57l-9.269-6.734h11.457zM259.417 39.37l3.54 10.896h11.458L265.145 57l3.541 10.897-9.269-6.734-9.27 6.734L253.69 57l-9.27-6.734h11.458zM324.269 39.37l3.54 10.896h11.457L329.997 57l3.54 10.897-9.268-6.734-9.27 6.734L318.54 57l-9.27-6.734h11.458z"/>
      </g>
      <g>
        <path d="M32.427 66.939l3.54 10.896h11.458l-9.27 6.735 3.541 10.896-9.27-6.734-9.268 6.734 3.54-10.896-9.269-6.735h11.457zM97.28 66.939l3.541 10.896h11.458l-9.27 6.735 3.541 10.896-9.27-6.734-9.268 6.734 3.54-10.896-9.269-6.735H93.74zM162.136 66.939l3.54 10.896h11.458l-9.27 6.735 3.541 10.896-9.269-6.734-9.269 6.734 3.54-10.896-9.269-6.735h11.458zM226.988 66.939l3.54 10.896h11.457l-9.269 6.735 3.54 10.896-9.268-6.734-9.27 6.734 3.541-10.896-9.27-6.735h11.458zM291.843 66.939l3.54 10.896h11.458l-9.27 6.735 3.541 10.896-9.27-6.734-9.268 6.734 3.54-10.896-9.269-6.735h11.457zM356.698 66.939l3.54 10.896h11.458l-9.27 6.735 3.541 10.896-9.269-6.734-9.27 6.734 3.542-10.896-9.27-6.735h11.458z"/>
        <g>
          <path d="M64.855 94.508l3.54 10.897h11.458l-9.27 6.734 3.542 10.897-9.27-6.734-9.269 6.734 3.54-10.897-9.269-6.734h11.458zM129.707 94.508l3.54 10.897h11.457l-9.269 6.734 3.54 10.897-9.268-6.734-9.27 6.734 3.541-10.897-9.27-6.734h11.458zM194.562 94.508l3.54 10.897h11.458l-9.27 6.734 3.541 10.897-9.27-6.734-9.268 6.734 3.54-10.897-9.269-6.734h11.457zM259.417 94.508l3.54 10.897h11.458l-9.27 6.734 3.541 10.897-9.269-6.734-9.27 6.734 3.542-10.897-9.27-6.734h11.458zM324.269 94.508l3.54 10.897h11.457l-9.269 6.734 3.54 10.897-9.268-6.734-9.27 6.734 3.541-10.897-9.27-6.734h11.458z"/>
        </g>
      </g>
      <g>
        <path d="M32.427 122.078l3.54 10.896h11.458l-9.27 6.735 3.541 10.896-9.27-6.734-9.268 6.734 3.54-10.896-9.269-6.735h11.457zM97.28 122.078l3.541 10.896h11.458l-9.27 6.735 3.541 10.896-9.27-6.734-9.268 6.734 3.54-10.896-9.269-6.735H93.74zM162.136 122.078l3.54 10.896h11.458l-9.27 6.735 3.541 10.896-9.269-6.734-9.269 6.734 3.54-10.896-9.269-6.735h11.458zM226.988 122.078l3.54 10.896h11.457l-9.269 6.735 3.54 10.896-9.268-6.734-9.27 6.734 3.541-10.896-9.27-6.735h11.458zM291.843 122.078l3.54 10.896h11.458l-9.27 6.735 3.541 10.896-9.27-6.734-9.268 6.734 3.54-10.896-9.269-6.735h11.457zM356.698 122.078l3.54 10.896h11.458l-9.27 6.735 3.541 10.896-9.269-6.734-9.27 6.734 3.542-10.896-9.27-6.735h11.458z"/>
        <g>
          <path d="M64.855 149.647l3.54 10.897h11.458l-9.27 6.734 3.542 10.897-9.27-6.734-9.269 6.734 3.54-10.897-9.269-6.734h11.458zM129.707 149.647l3.54 10.897h11.457l-9.269 6.734 3.54 10.897-9.268-6.734-9.27 6.734 3.541-10.897-9.27-6.734h11.458zM194.562 149.647l3.54 10.897h11.458l-9.27 6.734 3.541 10.897-9.27-6.734-9.268 6.734 3.54-10.897-9.269-6.734h11.457zM259.417 149.647l3.54 10.897h11.458l-9.27 6.734 3.541 10.897-9.269-6.734-9.27 6.734 3.542-10.897-9.27-6.734h11.458zM324.269 149.647l3.54 10.897h11.457l-9.269 6.734 3.54 10.897-9.268-6.734-9.27 6.734 3.541-10.897-9.27-6.734h11.458z"/>
        </g>
      </g>
      <g>
        <path d="M32.427 177.217l3.54 10.896h11.458l-9.27 6.735 3.541 10.896-9.27-6.734-9.268 6.734 3.54-10.896-9.269-6.735h11.457zM97.28 177.217l3.541 10.896h11.458l-9.27 6.735 3.541 10.896-9.27-6.734-9.268 6.734 3.54-10.896-9.269-6.735H93.74zM162.136 177.217l3.54 10.896h11.458l-9.27 6.735 3.541 10.896-9.269-6.734-9.269 6.734 3.54-10.896-9.269-6.735h11.458zM226.988 177.217l3.54 10.896h11.457l-9.269 6.735 3.54 10.896-9.268-6.734-9.27 6.734 3.541-10.896-9.27-6.735h11.458zM291.843 177.217l3.54 10.896h11.458l-9.27 6.735 3.541 10.896-9.27-6.734-9.268 6.734 3.54-10.896-9.269-6.735h11.457zM356.698 177.217l3.54 10.896h11.458l-9.27 6.735 3.541 10.896-9.269-6.734-9.27 6.734 3.542-10.896-9.27-6.735h11.458z"/>
        <g>
          <path d="M64.855 204.786l3.54 10.897h11.458l-9.27 6.734 3.542 10.897-9.27-6.734-9.269 6.734 3.54-10.897-9.269-6.734h11.458zM129.707 204.786l3.54 10.897h11.457l-9.269 6.734 3.54 10.897-9.268-6.734-9.27 6.734 3.541-10.897-9.27-6.734h11.458zM194.562 204.786l3.54 10.897h11.458l-9.27 6.734 3.541 10.897-9.27-6.734-9.268 6.734 3.54-10.897-9.269-6.734h11.457zM259.417 204.786l3.54 10.897h11.458l-9.27 6.734 3.541 10.897-9.269-6.734-9.27 6.734 3.542-10.897-9.27-6.734h11.458zM324.269 204.786l3.54 10.897h11.457l-9.269 6.734 3.54 10.897-9.268-6.734-9.27 6.734 3.541-10.897-9.27-6.734h11.458z"/>
        </g>
      </g>
      <g>
        <path d="M32.427 232.356l3.54 10.896h11.458l-9.27 6.735 3.541 10.896-9.27-6.734-9.268 6.734 3.54-10.896-9.269-6.735h11.457zM97.28 232.356l3.541 10.896h11.458l-9.27 6.735 3.541 10.896-9.27-6.734-9.268 6.734 3.54-10.896-9.269-6.735H93.74zM162.136 232.356l3.54 10.896h11.458l-9.27 6.735 3.541 10.896-9.269-6.734-9.269 6.734 3.54-10.896-9.269-6.735h11.458zM226.988 232.356l3.54 10.896h11.457l-9.269 6.735 3.54 10.896-9.268-6.734-9.27 6.734 3.541-10.896-9.27-6.735h11.458zM291.843 232.356l3.54 10.896h11.458l-9.27 6.735 3.541 10.896-9.27-6.734-9.268 6.734 3.54-10.896-9.269-6.735h11.457zM356.698 232.356l3.54 10.896h11.458l-9.27 6.735 3.541 10.896-9.269-6.734-9.27 6.734 3.542-10.896-9.27-6.735h11.458z"/>
      </g>
    </g>
  </g>
</svg>
